# xmcd CD database file
#
# Track frame offsets:
#	150
#	18872
#	38462
#	51405
#	65319
#	76993
#	88269
#	120209
#	134205
#	146668
#	156415
#	167239
#
# Disc length: 2366 seconds
#
# Revision: 0
# Processed by: cddbd v1.5.1PL0 Copyright (c) Steve Scherf et al.
# Submitted via: CDex 1.51
#
DISCID=a0093c0c
DTITLE=The Beatles - The Beatles Vol.1
DYEAR=1900
DGENRE=Pop
TTITLE0=Let It Be
TTITLE1=Come Together
TTITLE2=Get Back
TTITLE3=Something
TTITLE4=A Hard Day's Night
TTITLE5=I Want To Hold Your Hand
TTITLE6=Hey Jude
TTITLE7=Imagine
TTITLE8=Michelle
TTITLE9=Yesterday
TTITLE10=Help!
TTITLE11=I Feel Fine
EXTD=
EXTT0=
EXTT1=
EXTT2=
EXTT3=
EXTT4=
EXTT5=
EXTT6=
EXTT7=
EXTT8=
EXTT9=
EXTT10=
EXTT11=
PLAYORDER=
